<svg width="512" height="512" viewBox="0 0 512 512" fill="none" xmlns="http://www.w3.org/2000/svg">
<rect width="512" height="512" fill="#377DFF"/>
<path d="M242.32 431.25C215.237 430.833 191.799 423.333 172.008 408.75C152.216 393.958 137.633 373.958 128.258 348.75C119.091 323.333 115.862 295.938 118.57 266.562L119.508 255.938C122.424 224.688 131.695 195 147.32 166.875C162.945 138.542 182.737 116.979 206.695 102.188C230.654 87.1875 256.279 80 283.57 80.625C308.779 81.0417 330.029 87.9167 347.32 101.25C364.82 114.583 377.529 133.125 385.445 156.875C393.362 180.625 395.862 206.875 392.945 235.625L390.445 258.438H156.383L155.445 265.938C152.32 288.646 153.987 310.417 160.445 331.25C166.904 351.875 177.424 368.333 192.008 380.625C206.799 392.708 224.508 398.958 245.133 399.375C265.133 400 283.154 396.146 299.195 387.812C315.237 379.479 330.029 368.333 343.57 354.375L365.445 372.188C350.237 391.771 332.112 406.667 311.07 416.875C290.237 426.875 267.32 431.667 242.32 431.25ZM281.695 112.5C254.612 111.458 230.341 121.042 208.883 141.25C187.424 161.458 171.279 189.896 160.445 226.562L356.695 226.875L357.633 222.188C361.383 192.604 356.174 167.188 342.008 145.938C327.841 124.479 307.737 113.333 281.695 112.5Z" fill="white"/>
</svg>